<svg xmlns="http://www.w3.org/2000/svg" xmlns:xlink="http://www.w3.org/1999/xlink" width="189" height="144" viewBox="0 0 189 144">
  <metadata><?xpacket begin="﻿" id="W5M0MpCehiHzreSzNTczkc9d"?>
<x:xmpmeta xmlns:x="adobe:ns:meta/" x:xmptk="Adobe XMP Core 5.6-c138 79.159824, 2016/09/14-01:09:01        ">
   <rdf:RDF xmlns:rdf="http://www.w3.org/1999/02/22-rdf-syntax-ns#">
      <rdf:Description rdf:about=""/>
   </rdf:RDF>
</x:xmpmeta>
                                                                                                    
                                                                                                    
                                                                                                    
                                                                                                    
                                                                                                    
                                                                                                    
                                                                                                    
                                                                                                    
                                                                                                    
                                                                                                    
                                                                                                    
                                                                                                    
                                                                                                    
                                                                                                    
                                                                                                    
                                                                                                    
                                                                                                    
                                                                                                    
                                                                                                    
                                                                                                    
                           
<?xpacket end="w"?></metadata>
<defs>
    <style>
      .cls-1 {
        stroke: #e4e4e4;
        stroke-linejoin: round;
        stroke-width: 5px;
        fill-rule: evenodd;
        filter: url(#filter);
      }
    </style>
    <filter id="filter" x="5" y="0" width="189" height="144" filterUnits="userSpaceOnUse">
      <feFlood result="flood"/>
      <feComposite result="composite" operator="in" in2="SourceGraphic"/>
      <feBlend result="blend" mode="dissolve" in2="SourceGraphic"/>
    </filter>
  </defs>
  <g transform="translate(-5)" style="fill: ; filter: url(#filter)">
    <path id="Forme_1_copie" data-name="Forme 1 copie" class="cls-1" d="M133.961,137.689l-5.642-8.834c24.756-6,33.807-20.345,33.807-20.345-15.253,12.915-38.117,16.385-62.717,15.253l-0.005.11c-25-1.226-47.829-6.909-61.961-21.391,0,0,7.66,15.176,31.878,23.587L62.8,134.313s-29.527,1.935-52.507-27.045c0,0,4.378-56.83,27.5-86.743,0,0,17.976-13.808,44.778-14.933l-0.24,4.882s-23.268.755-37.575,17.733c0,0,18.627-14.826,59.365-12.986V15.206c40.889,2.005,58.017,18.737,58.017,18.737-12.486-18.277-35.411-21.3-35.411-21.3l0.239-4.878c26.382,3.731,42.8,19.213,42.8,19.213,19.94,32,18.727,88.932,18.727,88.932C162.958,142.491,133.961,137.689,133.961,137.689ZM75.484,62.749C68.406,62.4,61.1,69.165,60.669,77.928s6.18,16.209,13.258,16.556S88.312,88.068,88.742,79.3,82.562,63.1,75.484,62.749ZM128.4,65.293c-7.03-.345-14.289,6.414-14.718,15.17S119.813,96.655,126.843,97s14.289-6.414,14.719-15.169S135.428,65.638,128.4,65.293Z" style="stroke: inherit; filter: none; fill: inherit"/>
  </g>
  <use transform="translate(-5)" xlink:href="#Forme_1_copie" style="stroke: #e4e4e4; filter: none; fill: none"/>
</svg>
