<svg xmlns="http://www.w3.org/2000/svg" xmlns:xlink="http://www.w3.org/1999/xlink" width="158" height="137" viewBox="0 0 158 137">
  <metadata><?xpacket begin="﻿" id="W5M0MpCehiHzreSzNTczkc9d"?>
<x:xmpmeta xmlns:x="adobe:ns:meta/" x:xmptk="Adobe XMP Core 5.6-c138 79.159824, 2016/09/14-01:09:01        ">
   <rdf:RDF xmlns:rdf="http://www.w3.org/1999/02/22-rdf-syntax-ns#">
      <rdf:Description rdf:about=""/>
   </rdf:RDF>
</x:xmpmeta>
                                                                                                    
                                                                                                    
                                                                                                    
                                                                                                    
                                                                                                    
                                                                                                    
                                                                                                    
                                                                                                    
                                                                                                    
                                                                                                    
                                                                                                    
                                                                                                    
                                                                                                    
                                                                                                    
                                                                                                    
                                                                                                    
                                                                                                    
                                                                                                    
                                                                                                    
                                                                                                    
                           
<?xpacket end="w"?></metadata>
<defs>
    <style>
      .cls-1 {
        fill: #705537;
        stroke: #e4e4e4;
        stroke-linejoin: round;
        stroke-width: 5px;
        fill-rule: evenodd;
        filter: url(#filter);
      }
    </style>
    <filter id="filter" x="5" y="0" width="158" height="137" filterUnits="userSpaceOnUse">
      <feFlood result="flood"/>
      <feComposite result="composite" operator="in" in2="SourceGraphic"/>
      <feBlend result="blend" mode="dissolve" in2="SourceGraphic"/>
    </filter>
  </defs>
  <g transform="translate(-5)" style="fill: #705537; filter: url(#filter)">
    <path id="path" class="cls-1" d="M143.287,27.262c0.039,0.125.08,0.249,0.117,0.375A50.072,50.072,0,0,0,158,23.964a91.813,91.813,0,0,1-13.047,11.672c0.717,7.221-.1,15.684-3.009,25.359C124.891,117.817,71.105,153.449,10,117.58a59.1,59.1,0,0,0,44.989-12.713c-10.593-1.748-22.631-7.2-28.316-22.029,0,0,9.5,2.761,13.586,0,0,0-22.112-5.17-24.907-30.79,0,0,9.907,2.956,14.821,2.08,0,0-22.636-14.055-9.675-39.319,0,0,26.038,24,59.359,32.313-0.086-6.254.847-13.312,6.716-24.408,11.9-22.491,40.238-23.2,52.64-4.23,14.1-3.8,15.288-6.8,15.288-6.8C153.948,17.592,145.477,25.347,143.287,27.262Z" style="stroke: inherit; filter: none; fill: inherit"/>
  </g>
  <use transform="translate(-5)" xlink:href="#path" style="stroke: #e4e4e4; filter: none; fill: none"/>
</svg>
